# 3ds Max Wavefront OBJ Exporter v0.99 - (c)2007 guruware
# File Created: 08.01.2022 20:51:42

#
# object Plane001
#

v  -0.50000 -0.50000 -0.00215
v  -0.25562 -0.50000 -0.00215
v  -0.38771 -0.38064 -0.00215
v  -0.50000 -0.25000 -0.00215
v  -0.00562 -0.50000 -0.00215
v  -0.00707 -0.38064 -0.00215
v  0.24438 -0.50000 -0.00215
v  0.37133 -0.38064 -0.00215
v  0.49438 -0.50000 -0.00215
v  0.49292 -0.25000 -0.00215
v  -0.37916 0.00000 -0.00215
v  -0.50000 0.00000 -0.00215
v  -0.31271 -0.30730 0.02778
v  -0.00707 -0.30730 0.02778
v  0.00148 -0.00000 0.02778
v  -0.30583 -0.00082 0.02778
v  0.29800 -0.30730 0.02778
v  0.29800 -0.00000 0.02778
v  0.49292 0.00000 -0.00215
v  0.37133 0.00000 -0.00215
v  -0.37916 0.38064 -0.00215
v  -0.50000 0.25000 -0.00215
v  0.00148 0.30730 0.02778
v  -0.30583 0.30730 0.02778
v  0.29800 0.30730 0.02778
v  0.49292 0.25000 -0.00215
v  0.37133 0.38064 -0.00215
v  -0.25000 0.50000 -0.00215
v  -0.50000 0.50000 -0.00215
v  0.00148 0.38064 -0.00215
v  0.00000 0.50000 -0.00215
v  0.24292 0.50000 -0.00215
v  0.49292 0.50000 -0.00215
v  -0.00707 -0.38064 0.01132
v  -0.38771 -0.38064 0.01132
v  0.37133 -0.38064 0.01132
v  0.37133 -0.00000 0.01132
v  0.37133 0.38064 0.01132
v  0.00148 0.38064 0.01132
v  -0.37916 0.38064 0.01132
v  -0.37916 -0.00000 0.01132
# 41 vertices

vn -0.00000 -0.00000 1.00000
vn 0.00000 -0.00000 1.00000
vn 0.00000 -1.00000 -0.00000
vn 1.00000 0.00000 -0.00000
vn 0.00000 1.00000 0.00000
vn -1.00000 0.00000 -0.00000
vn -0.99975 0.02246 0.00000
vn 0.00000 -0.21904 0.97572
vn 0.21904 -0.00000 0.97572
vn 0.00000 0.21904 0.97572
vn -0.21904 -0.00000 0.97572
vn -0.21898 0.00492 0.97572
# 12 vertex normals

vt 0.33691 0.33961 0.00000
vt 0.41602 0.33923 0.00000
vt 0.37356 0.37847 0.00000
vt 0.33663 0.42062 0.00000
vt 0.49788 0.33657 0.00000
vt 0.49757 0.37505 0.00000
vt 0.57982 0.33862 0.00000
vt 0.62096 0.37774 0.00000
vt 0.66081 0.33891 0.00000
vt 0.66073 0.42001 0.00000
vt 0.37347 0.50245 0.00000
vt 0.33451 0.50261 0.00000
vt 0.39925 0.40317 0.00000
vt 0.49773 0.40316 0.00000
vt 0.50061 0.50215 0.00000
vt 0.40163 0.50197 0.00000
vt 0.59603 0.40301 0.00000
vt 0.59605 0.50206 0.00000
vt 0.66190 0.50164 0.00000
vt 0.62313 0.50186 0.00000
vt 0.37708 0.62644 0.00000
vt 0.33733 0.58448 0.00000
vt 0.50076 0.60114 0.00000
vt 0.40169 0.60129 0.00000
vt 0.59628 0.60113 0.00000
vt 0.66175 0.58339 0.00000
vt 0.62196 0.62591 0.00000
vt 0.41877 0.66567 0.00000
vt 0.33772 0.66539 0.00000
vt 0.50114 0.62927 0.00000
vt 0.50086 0.66775 0.00000
vt 0.58057 0.66504 0.00000
vt 0.66154 0.66461 0.00000
vt 0.49764 0.37917 0.00000
vt 0.37512 0.37973 0.00000
vt 0.61947 0.37938 0.00000
vt 0.61971 0.50197 0.00000
vt 0.62003 0.62458 0.00000
vt 0.50096 0.62513 0.00000
vt 0.37832 0.62489 0.00000
vt 0.37763 0.50233 0.00000
# 41 texture coords

o Plane001
g Plane001
f 1/1/1 2/2/2 3/3/1 
f 3/3/1 4/4/1 1/1/1 
f 2/2/2 5/5/1 6/6/1 
f 6/6/1 3/3/1 2/2/2 
f 5/5/1 7/7/2 8/8/2 
f 8/8/2 6/6/1 5/5/1 
f 9/9/2 10/10/2 8/8/2 
f 8/8/2 7/7/2 9/9/2 
f 4/4/1 3/3/1 11/11/1 
f 11/11/1 12/12/2 4/4/1 
f 13/13/1 14/14/2 15/15/1 
f 15/15/1 16/16/1 13/13/1 
f 14/14/2 17/17/2 18/18/2 
f 18/18/2 15/15/1 14/14/2 
f 8/8/2 10/10/2 19/19/2 
f 19/19/2 20/20/1 8/8/2 
f 12/12/2 11/11/1 21/21/2 
f 21/21/2 22/22/2 12/12/2 
f 16/16/1 15/15/1 23/23/1 
f 23/23/1 24/24/2 16/16/1 
f 15/15/1 18/18/2 25/25/2 
f 25/25/2 23/23/1 15/15/1 
f 20/20/1 19/19/2 26/26/1 
f 26/26/1 27/27/1 20/20/1 
f 21/21/2 28/28/2 29/29/2 
f 29/29/2 22/22/2 21/21/2 
f 21/21/2 30/30/1 31/31/1 
f 31/31/1 28/28/2 21/21/2 
f 30/30/1 27/27/1 32/32/1 
f 32/32/1 31/31/1 30/30/1 
f 27/27/1 26/26/1 33/33/1 
f 33/33/1 32/32/1 27/27/1 
f 3/3/3 6/6/3 34/34/3 
f 34/34/3 35/35/3 3/3/3 
f 6/6/3 8/8/3 36/36/3 
f 36/36/3 34/34/3 6/6/3 
f 8/8/4 20/20/4 37/37/4 
f 37/37/4 36/36/4 8/8/4 
f 20/20/4 27/27/4 38/38/4 
f 38/38/4 37/37/4 20/20/4 
f 27/27/5 30/30/5 39/39/5 
f 39/39/5 38/38/5 27/27/5 
f 30/30/5 21/21/5 40/40/5 
f 40/40/5 39/39/5 30/30/5 
f 21/21/6 11/11/6 41/41/6 
f 41/41/6 40/40/6 21/21/6 
f 11/11/7 3/3/7 35/35/7 
f 35/35/7 41/41/7 11/11/7 
f 35/35/8 34/34/8 14/14/8 
f 14/14/8 13/13/8 35/35/8 
f 34/34/8 36/36/8 17/17/8 
f 17/17/8 14/14/8 34/34/8 
f 36/36/9 37/37/9 18/18/9 
f 18/18/9 17/17/9 36/36/9 
f 37/37/9 38/38/9 25/25/9 
f 25/25/9 18/18/9 37/37/9 
f 38/38/10 39/39/10 23/23/10 
f 23/23/10 25/25/10 38/38/10 
f 39/39/10 40/40/10 24/24/10 
f 24/24/10 23/23/10 39/39/10 
f 40/40/11 41/41/11 16/16/11 
f 16/16/11 24/24/11 40/40/11 
f 41/41/12 35/35/12 13/13/12 
f 13/13/12 16/16/12 41/41/12 
# 64 faces

